<svg width="65" height="38" viewBox="0 0 65 38" fill="none" xmlns="http://www.w3.org/2000/svg">
<path fill-rule="evenodd" clip-rule="evenodd" d="M0 38H64.3946V0H0V38ZM27.1649 12.9316C29.3253 13.4921 31.1038 14.8688 32.0885 16.7426C32.4477 17.426 32.8279 18.6509 32.885 19.3081L32.9162 19.6676H28.8367L28.6107 19.0434C28.4863 18.7002 28.2832 18.2552 28.1592 18.0545C27.8208 17.507 27.0671 16.8584 26.4126 16.5516C25.8751 16.2996 25.7257 16.2784 24.4946 16.2784C23.2264 16.2784 23.1285 16.2935 22.5432 16.5796C21.3134 17.1807 20.3424 18.4784 19.9108 20.0975C19.607 21.2367 19.607 23.439 19.9108 24.5782C20.3378 26.18 21.3355 27.5182 22.5171 28.0739C24.1235 28.8296 26.3394 28.526 27.5049 27.3907C28.0553 26.8546 28.3212 26.4317 28.6107 25.6322L28.8367 25.0081H32.9162L32.8883 25.3676C32.8396 25.9932 32.5628 26.9351 32.2093 27.6784C31.2676 29.6584 29.6512 30.9994 27.3665 31.6959C26.5275 31.9516 26.2958 31.977 24.7514 31.9817C23.3289 31.9861 22.9115 31.9504 22.1529 31.7591C18.781 30.9087 16.5735 28.6301 15.6928 25.091C15.3871 23.8632 15.3622 21.1336 15.6445 19.8233C16.4194 16.2266 18.7188 13.7733 22.0811 12.9558C23.2739 12.6658 23.4789 12.6469 25.0081 12.6851C25.9341 12.7082 26.5951 12.7837 27.1649 12.9316ZM48.9357 21.85C50.7324 26.8067 52.2875 31.0816 52.3915 31.35L52.5808 31.8378H48.1034L46.6784 27.7811L39.4892 27.7287L38.0521 31.8378H35.9206C34.7483 31.8378 33.7892 31.8147 33.7892 31.7864C33.7892 31.758 35.2734 27.6795 37.0876 22.7229C38.9017 17.7662 40.4543 13.5144 40.5378 13.2743L40.6896 12.8378H45.6691L48.9357 21.85ZM58.3351 31.8378H54.1243V12.8378H58.3351V31.8378ZM41.8255 20.8245C41.1898 22.6736 40.6699 24.2212 40.6701 24.2635C40.6702 24.3058 41.7613 24.3405 43.0948 24.3405C45.3618 24.3405 45.5148 24.3288 45.4497 24.1608C45.4115 24.0619 44.868 22.5138 44.2422 20.7203C43.6162 18.9268 43.0764 17.4602 43.0426 17.461C43.0087 17.4618 42.461 18.9754 41.8255 20.8245Z" fill="white"/>
</svg>
