<svg width="28" height="28" viewBox="0 0 28 28" fill="none" xmlns="http://www.w3.org/2000/svg">
<path fill-rule="evenodd" clip-rule="evenodd" d="M12.6695 0.0339956C8.28813 0.489561 4.44825 2.8738 2.11562 6.58715C-1.19254 11.8535 -0.567999 18.8454 3.61751 23.4008C5.94378 25.9327 8.82472 27.4384 12.2856 27.9314C12.9361 28.024 15.0876 28.0225 15.7632 27.929C19.1716 27.4569 22.0502 25.9544 24.3725 23.4354C26.2819 21.3645 27.5069 18.7117 27.9312 15.7294C28.0229 15.0847 28.0229 12.9219 27.9312 12.2773C27.6073 10.0003 26.8866 8.06453 25.6893 6.25536C25.1801 5.48593 24.6715 4.86516 23.963 4.14817C21.7737 1.93264 19.0714 0.569123 15.9549 0.107421C15.283 0.00785842 13.3387 -0.0355392 12.6695 0.0339956ZM8.90243 7.07235C9.37265 7.21208 9.68525 7.46775 9.90174 7.88962C10.0675 8.21253 10.0919 8.31149 10.0919 8.65916C10.0919 8.99412 10.0656 9.10941 9.92813 9.3784C9.63733 9.94739 9.04728 10.2776 8.32246 10.2769C7.8661 10.2765 7.59211 10.203 7.25853 9.99112C6.79314 9.69566 6.54883 9.21566 6.55233 8.60387C6.55885 7.47504 7.7172 6.72019 8.90243 7.07235ZM18.5448 11.4593C19.7528 11.706 20.6951 12.5756 21.0937 13.8115C21.3257 14.5307 21.3493 14.9266 21.3493 18.0927V21.1267H19.7637H18.1782L18.1618 18.1814C18.1457 15.2902 18.1433 15.2308 18.0248 14.9413C17.7204 14.1978 17.3849 13.9422 16.6637 13.9042C16.2699 13.8836 16.1749 13.8978 15.9168 14.016C15.5091 14.2028 15.2654 14.4326 15.0462 14.837L14.8595 15.1814L14.8436 18.154L14.8277 21.1267H13.2417H11.6558V16.3595V11.5923H13.244H14.8322L14.835 12.2636C14.8378 12.9041 14.842 12.9286 14.9272 12.7978C15.1413 12.4695 15.8023 11.8804 16.1465 11.7111C16.8126 11.3837 17.7118 11.2893 18.5448 11.4593ZM9.90327 16.3595V21.1267H8.31507H6.72687V16.3595V11.5923H8.31507H9.90327V16.3595Z" fill="white"/>
</svg>
