<svg width="28" height="28" viewBox="0 0 28 28" fill="none" xmlns="http://www.w3.org/2000/svg">
<path fill-rule="evenodd" clip-rule="evenodd" d="M12.6044 0.0700149C7.15755 0.630215 2.46885 4.38536 0.747416 9.56622C-0.440231 13.1405 -0.207845 16.8652 1.41134 20.2086C2.70488 22.8796 4.67056 24.9745 7.22084 26.4001C8.55342 27.145 10.9289 27.9643 11.7562 27.9643C11.9045 27.9643 11.9073 27.8697 11.9073 22.8978V17.8313H10.163H8.41871L8.43947 15.98L8.46023 14.1288L10.1752 14.1078L11.8902 14.0869L11.9282 12.1202C11.9605 10.4451 11.991 10.0553 12.1336 9.491C12.6992 7.25238 14.1452 6.03696 16.4795 5.83836C17.2399 5.77366 19.8968 5.85488 20.0454 5.94733C20.087 5.9732 20.1183 6.67589 20.1183 7.58591V9.17922L18.8595 9.17968C18.1672 9.17992 17.4613 9.2185 17.2909 9.26535C16.8652 9.38258 16.3032 9.97653 16.1345 10.4875C15.9662 10.9974 15.861 12.0246 15.8592 13.174L15.8579 14.0898H17.9493H20.0408V14.2724C20.0408 14.4494 19.6143 17.3022 19.535 17.6559L19.4956 17.8313H17.6767H15.8579V22.8932C15.8579 25.6773 15.8871 27.9733 15.9229 27.9955C15.9587 28.0178 16.3858 27.9543 16.8718 27.8545C20.135 27.1843 23.1023 25.2971 25.1509 22.5892C27.2053 19.8735 28.2415 16.3332 27.9522 13.0181C27.633 9.36075 26.0988 6.17937 23.4724 3.72921C20.5763 1.02727 16.533 -0.334059 12.6044 0.0700149Z" fill="white"/>
</svg>
