<svg width="28" height="20" viewBox="0 0 28 20" fill="none" xmlns="http://www.w3.org/2000/svg">
<path d="M6.27586 8.76254L1.44828 8.76254L1.44828 0L11.7241 1.23055e-06L11.7241 9.49833C11.7241 12.7982 10.6897 15.3623 8.62069 17.1906C6.55172 19.0635 3.67816 20 0 20L2.94562e-07 15.3846C2.16092 15.3846 3.74713 14.9164 4.75862 13.9799C5.77012 13.0435 6.27586 11.5719 6.27586 9.56522V8.76254ZM22.5517 8.76254L17.7241 8.76254V1.94906e-06L28 3.17961e-06V9.49833C28 12.7982 26.9655 15.3623 24.8965 17.1906C22.8276 19.0635 19.954 20 16.2759 20V15.3846C18.4368 15.3846 20.023 14.9164 21.0345 13.9799C22.046 13.0435 22.5517 11.5719 22.5517 9.56522V8.76254Z" fill="#D9D8D6"/>
</svg>
