<svg width="28" height="28" viewBox="0 0 28 28" fill="none" xmlns="http://www.w3.org/2000/svg">
<path fill-rule="evenodd" clip-rule="evenodd" d="M13.1596 0.0433017C9.73248 0.238477 6.55875 1.66958 4.09361 4.13135C1.80676 6.41513 0.440051 9.23551 0.069028 12.4363C-0.0230093 13.2304 -0.0230093 14.7945 0.069028 15.5887C0.364264 18.1358 1.26255 20.3703 2.83933 22.48C3.44394 23.2888 4.64706 24.4988 5.4527 25.1081C7.77407 26.8638 10.392 27.8292 13.2402 27.9799C18.3456 28.2501 23.1128 25.7795 25.8616 21.4389C27.6162 18.6682 28.3335 15.2686 27.8552 11.9897C27.2586 7.89891 24.8626 4.26994 21.3185 2.08937C19.7099 1.09967 17.8773 0.434735 16.0036 0.160859C15.5624 0.0963646 14.0406 -0.0157823 13.8462 0.00185825C13.8073 0.00533932 13.4983 0.0240147 13.1596 0.0433017ZM22.3678 8.47484C22.3269 8.50636 20.4762 9.89752 18.2552 11.5663C16.0342 13.2351 14.1669 14.6382 14.1056 14.6843L13.9942 14.7682L9.81053 11.6318C7.5095 9.90688 5.60672 8.47734 5.58213 8.45504C5.55712 8.43236 9.2617 8.41519 13.9898 8.41604C20.6437 8.41722 22.4265 8.42973 22.3678 8.47484ZM13.7666 15.6142C13.8492 15.6645 13.9631 15.7057 14.0198 15.7058C14.0763 15.7059 14.2989 15.5722 14.5143 15.4088C14.7297 15.2453 16.7023 13.7645 18.8979 12.1181L22.8898 9.12453V14.1385V19.1524L22.7884 19.3163C22.5935 19.6312 23.2152 19.6104 13.9843 19.6104C4.72271 19.6104 5.40941 19.6336 5.19119 19.3133L5.08521 19.1577V14.1384V9.11908L9.35081 12.3209C11.6969 14.0819 13.6841 15.5639 13.7666 15.6142Z" fill="#2D58D9"/>
</svg>
