<svg width="28" height="28" viewBox="0 0 28 28" fill="none" xmlns="http://www.w3.org/2000/svg">
<path fill-rule="evenodd" clip-rule="evenodd" d="M13.3483 0.018697C10.6829 0.150012 8.10059 1.02911 5.9679 2.53117C3.01396 4.6117 0.971327 7.71109 0.268778 11.1789C0.0523003 12.2474 0.00316691 12.7549 9.86549e-05 13.9552C-0.00363301 15.3862 0.0978266 16.2438 0.419165 17.4981C1.59912 22.1037 5.08881 25.8342 9.60379 27.3164C10.6268 27.6522 11.6358 27.8618 12.7216 27.9638C13.5085 28.0377 15.2661 27.9928 16.0019 27.8799C18.5593 27.4877 20.7798 26.5184 22.7742 24.9235C23.4193 24.4077 24.3806 23.4536 24.8702 22.8435C26.0511 21.3717 27.0141 19.5103 27.4872 17.785C28.8108 12.9585 27.5352 7.90307 24.0863 4.30693C21.6431 1.75932 18.3866 0.260691 14.7995 0.0331586C14.1689 -0.00686988 13.9177 -0.00935608 13.3483 0.018697ZM19.0909 6.39214C19.6954 6.5876 20.0515 6.79735 20.495 7.21923C21.7438 8.40707 21.9602 10.2899 21.0152 11.7468C20.8352 12.0245 17.3402 15.5564 16.9556 15.8493C16.4186 16.2585 15.7551 16.4926 14.9853 16.5448C14.2204 16.5966 13.5088 16.4027 12.8441 15.9613C12.4029 15.6684 12.1444 15.3809 12.0594 15.0884C11.838 14.3276 12.5463 13.6547 13.3374 13.8743C13.4227 13.898 13.6093 14.0121 13.7521 14.1279C14.1585 14.4576 14.3115 14.514 14.8001 14.5143C15.5039 14.5148 15.4431 14.5604 17.5403 12.455C18.8539 11.1363 19.351 10.6108 19.4165 10.4717C19.6344 10.0089 19.6202 9.52012 19.3756 9.06141C19.2198 8.76936 18.9963 8.56043 18.6763 8.40774C18.4772 8.31276 18.3957 8.29896 18.0336 8.299C17.411 8.29905 17.3778 8.3213 16.0831 9.6083C15.2506 10.4357 14.9795 10.6816 14.8999 10.6816C14.8431 10.6816 14.6893 10.6439 14.5582 10.5979C14.21 10.4755 13.7739 10.3916 13.3372 10.3628C12.9301 10.336 12.8561 10.3059 12.8089 10.1476C12.7825 10.0592 12.9461 9.88266 14.3492 8.48464C16.0614 6.77871 16.2042 6.66368 16.8943 6.43399C17.3834 6.27118 17.5348 6.25096 18.158 6.26505C18.6556 6.27632 18.7888 6.29447 19.0909 6.39214ZM14.0324 11.2411C14.6785 11.4074 15.5374 11.9433 15.8045 12.3466C15.944 12.5572 15.9863 13.0179 15.8879 13.2526C15.7437 13.5967 15.4346 13.8205 15.0487 13.8603C14.7498 13.8911 14.4824 13.7925 14.1776 13.539C14.0407 13.4251 13.8262 13.2926 13.7007 13.2444C13.3869 13.1238 12.9376 13.1266 12.602 13.2513C12.3669 13.3387 12.2522 13.4443 10.5165 15.1723C8.38287 17.2964 8.41422 17.2556 8.41422 17.9116C8.41422 18.2304 8.43055 18.3202 8.52534 18.5223C8.67212 18.8353 8.95718 19.1334 9.25268 19.2829C9.47227 19.3941 9.52858 19.4042 9.92762 19.4042C10.5724 19.4042 10.5963 19.3883 11.8971 18.0994C12.49 17.5118 13.0031 17.0226 13.0373 17.012C13.0715 17.0016 13.2282 17.0365 13.3853 17.0897C13.7703 17.2199 14.1805 17.2987 14.6544 17.3333C14.871 17.3492 15.0716 17.3811 15.1001 17.4041C15.1286 17.4272 15.1519 17.5047 15.1519 17.5764C15.1519 17.6926 14.9893 17.8688 13.6489 19.2041C12.0567 20.7903 11.8486 20.9636 11.2471 21.2036C10.393 21.5446 9.39005 21.5348 8.53861 21.1773C7.54039 20.7581 6.77063 19.8583 6.47922 18.7701C6.35907 18.3214 6.35907 17.5034 6.47922 17.0548C6.58997 16.6411 6.81051 16.1675 7.0415 15.8472C7.14276 15.7068 8.08077 14.7414 9.12597 13.7017C11.1485 11.6901 11.2453 11.6081 11.8815 11.3694C12.37 11.1862 12.6798 11.1375 13.2447 11.1553C13.5394 11.1646 13.8792 11.2016 14.0324 11.2411Z" fill="#2D58D9"/>
</svg>
